<mxfile host="app.diagrams.net" modified="2023-05-10T11:26:17.714Z" agent="5.0 (Macintosh; Intel Mac OS X 10_15_7) AppleWebKit/537.36 (KHTML, like Gecko) Chrome/112.0.0.0 Safari/537.36" etag="KM-NpE6Gt6cyeBZBxzHX" version="20.8.20" type="github" pages="4">
  <diagram name="Page-1" id="5f0bae14-7c28-e335-631c-24af17079c00">
    <mxGraphModel dx="2390" dy="1232" grid="1" gridSize="10" guides="1" tooltips="1" connect="1" arrows="1" fold="1" page="1" pageScale="1" pageWidth="1100" pageHeight="850" background="none" math="0" shadow="0">
      <root>
        <mxCell id="0" />
        <mxCell id="1" parent="0" />
        <mxCell id="39150e848f15840c-1" value="Block" style="verticalAlign=top;align=left;spacingTop=8;spacingLeft=2;spacingRight=12;shape=cube;size=10;direction=south;fontStyle=4;html=1;rounded=0;shadow=0;comic=0;labelBackgroundColor=none;strokeWidth=1;fontFamily=Verdana;fontSize=12" parent="1" vertex="1">
          <mxGeometry x="120" y="70" width="330" height="290" as="geometry" />
        </mxCell>
        <mxCell id="39150e848f15840c-2" value="Block" style="verticalAlign=top;align=left;spacingTop=8;spacingLeft=2;spacingRight=12;shape=cube;size=10;direction=south;fontStyle=4;html=1;rounded=0;shadow=0;comic=0;labelBackgroundColor=none;strokeWidth=1;fontFamily=Verdana;fontSize=12" parent="1" vertex="1">
          <mxGeometry x="530" y="70" width="330" height="340" as="geometry" />
        </mxCell>
        <mxCell id="39150e848f15840c-3" value="" style="verticalAlign=top;align=left;spacingTop=8;spacingLeft=2;spacingRight=12;shape=cube;size=10;direction=south;fontStyle=4;html=1;rounded=0;shadow=0;comic=0;labelBackgroundColor=none;strokeWidth=1;fontFamily=Verdana;fontSize=12" parent="1" vertex="1">
          <mxGeometry x="365" y="490" width="260" height="150" as="geometry" />
        </mxCell>
        <mxCell id="39150e848f15840c-4" value="«interface»&lt;br&gt;&lt;b&gt;QueryProviders&lt;/b&gt;" style="html=1;rounded=0;shadow=0;comic=0;labelBackgroundColor=none;strokeWidth=1;fontFamily=Verdana;fontSize=12;align=center;" parent="1" vertex="1">
          <mxGeometry x="150" y="180" width="130" height="50" as="geometry" />
        </mxCell>
        <mxCell id="39150e848f15840c-6" value="" style="ellipse;whiteSpace=wrap;html=1;rounded=0;shadow=0;comic=0;labelBackgroundColor=none;strokeWidth=1;fontFamily=Verdana;fontSize=12;align=center;" parent="1" vertex="1">
          <mxGeometry x="360" y="290" width="20" height="20" as="geometry" />
        </mxCell>
        <mxCell id="39150e848f15840c-8" value="«interface»&lt;br&gt;&lt;b&gt;ExtractInfo&lt;/b&gt;" style="html=1;rounded=0;shadow=0;comic=0;labelBackgroundColor=none;strokeWidth=1;fontFamily=Verdana;fontSize=12;align=center;" parent="1" vertex="1">
          <mxGeometry x="720" y="140" width="110" height="50" as="geometry" />
        </mxCell>
        <mxCell id="39150e848f15840c-9" value="" style="ellipse;whiteSpace=wrap;html=1;rounded=0;shadow=0;comic=0;labelBackgroundColor=none;strokeWidth=1;fontFamily=Verdana;fontSize=12;align=center;" parent="1" vertex="1">
          <mxGeometry x="620" y="360" width="20" height="20" as="geometry" />
        </mxCell>
        <mxCell id="39150e848f15840c-10" value="&lt;b&gt;Collector&lt;/b&gt;" style="shape=component;align=left;spacingLeft=36;rounded=0;shadow=0;comic=0;labelBackgroundColor=none;strokeWidth=1;fontFamily=Verdana;fontSize=12;html=1;" parent="1" vertex="1">
          <mxGeometry x="435" y="540" width="120" height="60" as="geometry" />
        </mxCell>
        <mxCell id="39150e848f15840c-11" style="edgeStyle=none;rounded=0;html=1;dashed=1;labelBackgroundColor=none;startArrow=none;startFill=0;startSize=8;endArrow=open;endFill=0;endSize=16;fontFamily=Verdana;fontSize=12;" parent="1" source="39150e848f15840c-10" target="39150e848f15840c-6" edge="1">
          <mxGeometry relative="1" as="geometry" />
        </mxCell>
        <mxCell id="39150e848f15840c-12" style="edgeStyle=none;rounded=0;html=1;dashed=1;labelBackgroundColor=none;startArrow=none;startFill=0;startSize=8;endArrow=open;endFill=0;endSize=16;fontFamily=Verdana;fontSize=12;" parent="1" source="39150e848f15840c-3" target="39150e848f15840c-9" edge="1">
          <mxGeometry relative="1" as="geometry" />
        </mxCell>
        <mxCell id="39150e848f15840c-13" style="edgeStyle=elbowEdgeStyle;rounded=0;html=1;labelBackgroundColor=none;startArrow=none;startFill=0;startSize=8;endArrow=none;endFill=0;endSize=16;fontFamily=Verdana;fontSize=12;" parent="1" source="39150e848f15840c-9" edge="1">
          <mxGeometry relative="1" as="geometry">
            <mxPoint x="630" y="140" as="targetPoint" />
          </mxGeometry>
        </mxCell>
        <mxCell id="39150e848f15840c-14" style="edgeStyle=elbowEdgeStyle;rounded=0;html=1;labelBackgroundColor=none;startArrow=none;startFill=0;startSize=8;endArrow=none;endFill=0;endSize=16;fontFamily=Verdana;fontSize=12;exitX=0.5;exitY=0;exitDx=0;exitDy=0;" parent="1" source="39150e848f15840c-6" edge="1">
          <mxGeometry relative="1" as="geometry">
            <mxPoint x="370" y="230" as="sourcePoint" />
            <mxPoint x="370" y="130" as="targetPoint" />
          </mxGeometry>
        </mxCell>
        <mxCell id="39150e848f15840c-15" style="edgeStyle=orthogonalEdgeStyle;rounded=0;html=1;labelBackgroundColor=none;startArrow=none;startFill=0;startSize=8;endArrow=open;endFill=0;endSize=16;fontFamily=Verdana;fontSize=12;dashed=1;entryX=0.5;entryY=1;entryDx=0;entryDy=0;" parent="1" target="39150e848f15840c-4" edge="1">
          <mxGeometry relative="1" as="geometry">
            <Array as="points">
              <mxPoint x="370" y="290" />
              <mxPoint x="215" y="290" />
            </Array>
            <mxPoint x="370" y="140" as="sourcePoint" />
          </mxGeometry>
        </mxCell>
        <mxCell id="39150e848f15840c-16" style="edgeStyle=orthogonalEdgeStyle;rounded=0;html=1;dashed=1;labelBackgroundColor=none;startArrow=none;startFill=0;startSize=8;endArrow=open;endFill=0;endSize=16;fontFamily=Verdana;fontSize=12;exitX=0.5;exitY=0;exitDx=0;exitDy=0;" parent="1" source="39150e848f15840c-9" target="39150e848f15840c-8" edge="1">
          <mxGeometry relative="1" as="geometry">
            <mxPoint x="660" y="122.5" as="sourcePoint" />
            <Array as="points">
              <mxPoint x="775" y="350" />
            </Array>
          </mxGeometry>
        </mxCell>
        <mxCell id="39150e848f15840c-17" style="edgeStyle=orthogonalEdgeStyle;rounded=0;html=1;labelBackgroundColor=none;startArrow=none;startFill=0;startSize=8;endArrow=none;endFill=0;endSize=16;fontFamily=Verdana;fontSize=12;exitX=0;exitY=0;exitDx=70;exitDy=0;exitPerimeter=0;" parent="1" source="39150e848f15840c-3" target="39150e848f15840c-2" edge="1">
          <mxGeometry relative="1" as="geometry">
            <Array as="points">
              <mxPoint x="695" y="560" />
            </Array>
          </mxGeometry>
        </mxCell>
        <mxCell id="39150e848f15840c-18" style="edgeStyle=orthogonalEdgeStyle;rounded=0;html=1;labelBackgroundColor=none;startArrow=none;startFill=0;startSize=8;endArrow=none;endFill=0;endSize=16;fontFamily=Verdana;fontSize=12;entryX=0;entryY=0;entryDx=290;entryDy=170;entryPerimeter=0;" parent="1" source="39150e848f15840c-3" target="39150e848f15840c-1" edge="1">
          <mxGeometry relative="1" as="geometry">
            <Array as="points">
              <mxPoint x="280" y="565" />
            </Array>
            <mxPoint x="280" y="440" as="targetPoint" />
          </mxGeometry>
        </mxCell>
        <mxCell id="Cem6irckB6PFwFaniQ2S-5" value="«moudel»&lt;br&gt;&lt;b&gt;Geth&lt;/b&gt;" style="html=1;dropTarget=0;" parent="1" vertex="1">
          <mxGeometry x="300" y="90" width="120" height="50" as="geometry" />
        </mxCell>
        <mxCell id="Cem6irckB6PFwFaniQ2S-6" value="" style="shape=module;jettyWidth=8;jettyHeight=4;" parent="Cem6irckB6PFwFaniQ2S-5" vertex="1">
          <mxGeometry x="1" width="20" height="20" relative="1" as="geometry">
            <mxPoint x="-27" y="7" as="offset" />
          </mxGeometry>
        </mxCell>
        <mxCell id="Cem6irckB6PFwFaniQ2S-7" value="«moudel»&lt;br&gt;&lt;b&gt;Chainbase&lt;/b&gt;" style="html=1;dropTarget=0;" parent="1" vertex="1">
          <mxGeometry x="310" y="150" width="120" height="50" as="geometry" />
        </mxCell>
        <mxCell id="Cem6irckB6PFwFaniQ2S-8" value="" style="shape=module;jettyWidth=8;jettyHeight=4;" parent="Cem6irckB6PFwFaniQ2S-7" vertex="1">
          <mxGeometry x="1" width="20" height="20" relative="1" as="geometry">
            <mxPoint x="-27" y="7" as="offset" />
          </mxGeometry>
        </mxCell>
        <mxCell id="Cem6irckB6PFwFaniQ2S-9" value="«moudel»&lt;br&gt;&lt;b&gt;Etherscan&lt;/b&gt;" style="html=1;dropTarget=0;" parent="1" vertex="1">
          <mxGeometry x="300" y="220" width="120" height="50" as="geometry" />
        </mxCell>
        <mxCell id="Cem6irckB6PFwFaniQ2S-10" value="" style="shape=module;jettyWidth=8;jettyHeight=4;" parent="Cem6irckB6PFwFaniQ2S-9" vertex="1">
          <mxGeometry x="1" width="20" height="20" relative="1" as="geometry">
            <mxPoint x="-27" y="7" as="offset" />
          </mxGeometry>
        </mxCell>
        <mxCell id="Cem6irckB6PFwFaniQ2S-11" value="«moudel»&lt;br&gt;&lt;b&gt;Multichain&lt;/b&gt;" style="html=1;dropTarget=0;" parent="1" vertex="1">
          <mxGeometry x="550" y="100" width="120" height="50" as="geometry" />
        </mxCell>
        <mxCell id="Cem6irckB6PFwFaniQ2S-12" value="" style="shape=module;jettyWidth=8;jettyHeight=4;" parent="Cem6irckB6PFwFaniQ2S-11" vertex="1">
          <mxGeometry x="1" width="20" height="20" relative="1" as="geometry">
            <mxPoint x="-27" y="7" as="offset" />
          </mxGeometry>
        </mxCell>
        <mxCell id="Cem6irckB6PFwFaniQ2S-13" value="«moudel»&lt;br&gt;&lt;b&gt;Synapse&lt;/b&gt;" style="html=1;dropTarget=0;" parent="1" vertex="1">
          <mxGeometry x="570" y="170" width="120" height="50" as="geometry" />
        </mxCell>
        <mxCell id="Cem6irckB6PFwFaniQ2S-14" value="" style="shape=module;jettyWidth=8;jettyHeight=4;" parent="Cem6irckB6PFwFaniQ2S-13" vertex="1">
          <mxGeometry x="1" width="20" height="20" relative="1" as="geometry">
            <mxPoint x="-27" y="7" as="offset" />
          </mxGeometry>
        </mxCell>
        <mxCell id="Cem6irckB6PFwFaniQ2S-15" value="«moudel»&lt;br&gt;&lt;b&gt;Across&lt;/b&gt;" style="html=1;dropTarget=0;" parent="1" vertex="1">
          <mxGeometry x="550" y="230" width="120" height="50" as="geometry" />
        </mxCell>
        <mxCell id="Cem6irckB6PFwFaniQ2S-16" value="" style="shape=module;jettyWidth=8;jettyHeight=4;" parent="Cem6irckB6PFwFaniQ2S-15" vertex="1">
          <mxGeometry x="1" width="20" height="20" relative="1" as="geometry">
            <mxPoint x="-27" y="7" as="offset" />
          </mxGeometry>
        </mxCell>
        <mxCell id="Cem6irckB6PFwFaniQ2S-17" value="«moudel»&lt;br&gt;&lt;b&gt;CBridge&lt;/b&gt;" style="html=1;dropTarget=0;" parent="1" vertex="1">
          <mxGeometry x="600" y="290" width="120" height="50" as="geometry" />
        </mxCell>
        <mxCell id="Cem6irckB6PFwFaniQ2S-18" value="" style="shape=module;jettyWidth=8;jettyHeight=4;" parent="Cem6irckB6PFwFaniQ2S-17" vertex="1">
          <mxGeometry x="1" width="20" height="20" relative="1" as="geometry">
            <mxPoint x="-27" y="7" as="offset" />
          </mxGeometry>
        </mxCell>
        <mxCell id="q-n3bbQd4MvI7GB6hKos-1" value="Block" style="verticalAlign=top;align=left;spacingTop=8;spacingLeft=2;spacingRight=12;shape=cube;size=10;direction=south;fontStyle=4;html=1;rounded=0;shadow=0;comic=0;labelBackgroundColor=none;strokeWidth=1;fontFamily=Verdana;fontSize=12" vertex="1" parent="1">
          <mxGeometry x="120" y="850" width="330" height="290" as="geometry" />
        </mxCell>
        <mxCell id="q-n3bbQd4MvI7GB6hKos-2" value="Block" style="verticalAlign=top;align=left;spacingTop=8;spacingLeft=2;spacingRight=12;shape=cube;size=10;direction=south;fontStyle=4;html=1;rounded=0;shadow=0;comic=0;labelBackgroundColor=none;strokeWidth=1;fontFamily=Verdana;fontSize=12" vertex="1" parent="1">
          <mxGeometry x="530" y="850" width="330" height="340" as="geometry" />
        </mxCell>
        <mxCell id="q-n3bbQd4MvI7GB6hKos-3" value="" style="verticalAlign=top;align=left;spacingTop=8;spacingLeft=2;spacingRight=12;shape=cube;size=10;direction=south;fontStyle=4;html=1;rounded=0;shadow=0;comic=0;labelBackgroundColor=none;strokeWidth=1;fontFamily=Verdana;fontSize=12" vertex="1" parent="1">
          <mxGeometry x="440" y="1308" width="102.5" height="54" as="geometry" />
        </mxCell>
        <mxCell id="q-n3bbQd4MvI7GB6hKos-4" value="«interface»&lt;br&gt;&lt;b&gt;QueryProviders&lt;/b&gt;" style="html=1;rounded=0;shadow=0;comic=0;labelBackgroundColor=none;strokeWidth=1;fontFamily=Verdana;fontSize=12;align=center;" vertex="1" parent="1">
          <mxGeometry x="150" y="960" width="130" height="50" as="geometry" />
        </mxCell>
        <mxCell id="q-n3bbQd4MvI7GB6hKos-5" value="" style="ellipse;whiteSpace=wrap;html=1;rounded=0;shadow=0;comic=0;labelBackgroundColor=none;strokeWidth=1;fontFamily=Verdana;fontSize=12;align=center;" vertex="1" parent="1">
          <mxGeometry x="360" y="1070" width="20" height="20" as="geometry" />
        </mxCell>
        <mxCell id="q-n3bbQd4MvI7GB6hKos-6" value="«interface»&lt;br&gt;&lt;b&gt;Match&lt;/b&gt;" style="html=1;rounded=0;shadow=0;comic=0;labelBackgroundColor=none;strokeWidth=1;fontFamily=Verdana;fontSize=12;align=center;" vertex="1" parent="1">
          <mxGeometry x="720" y="920" width="110" height="50" as="geometry" />
        </mxCell>
        <mxCell id="q-n3bbQd4MvI7GB6hKos-7" value="" style="ellipse;whiteSpace=wrap;html=1;rounded=0;shadow=0;comic=0;labelBackgroundColor=none;strokeWidth=1;fontFamily=Verdana;fontSize=12;align=center;" vertex="1" parent="1">
          <mxGeometry x="620" y="1140" width="20" height="20" as="geometry" />
        </mxCell>
        <mxCell id="q-n3bbQd4MvI7GB6hKos-9" style="edgeStyle=none;rounded=0;html=1;dashed=1;labelBackgroundColor=none;startArrow=none;startFill=0;startSize=8;endArrow=open;endFill=0;endSize=16;fontFamily=Verdana;fontSize=12;" edge="1" parent="1" target="q-n3bbQd4MvI7GB6hKos-5">
          <mxGeometry relative="1" as="geometry">
            <mxPoint x="476.41310988818987" y="1320" as="sourcePoint" />
          </mxGeometry>
        </mxCell>
        <mxCell id="q-n3bbQd4MvI7GB6hKos-10" style="edgeStyle=none;rounded=0;html=1;dashed=1;labelBackgroundColor=none;startArrow=none;startFill=0;startSize=8;endArrow=open;endFill=0;endSize=16;fontFamily=Verdana;fontSize=12;" edge="1" parent="1" source="q-n3bbQd4MvI7GB6hKos-3" target="q-n3bbQd4MvI7GB6hKos-7">
          <mxGeometry relative="1" as="geometry" />
        </mxCell>
        <mxCell id="q-n3bbQd4MvI7GB6hKos-11" style="edgeStyle=elbowEdgeStyle;rounded=0;html=1;labelBackgroundColor=none;startArrow=none;startFill=0;startSize=8;endArrow=none;endFill=0;endSize=16;fontFamily=Verdana;fontSize=12;" edge="1" parent="1" source="q-n3bbQd4MvI7GB6hKos-7">
          <mxGeometry relative="1" as="geometry">
            <mxPoint x="630" y="920" as="targetPoint" />
          </mxGeometry>
        </mxCell>
        <mxCell id="q-n3bbQd4MvI7GB6hKos-12" style="edgeStyle=elbowEdgeStyle;rounded=0;html=1;labelBackgroundColor=none;startArrow=none;startFill=0;startSize=8;endArrow=none;endFill=0;endSize=16;fontFamily=Verdana;fontSize=12;exitX=0.5;exitY=0;exitDx=0;exitDy=0;" edge="1" parent="1" source="q-n3bbQd4MvI7GB6hKos-5">
          <mxGeometry relative="1" as="geometry">
            <mxPoint x="370" y="1010" as="sourcePoint" />
            <mxPoint x="370" y="910" as="targetPoint" />
          </mxGeometry>
        </mxCell>
        <mxCell id="q-n3bbQd4MvI7GB6hKos-13" style="edgeStyle=orthogonalEdgeStyle;rounded=0;html=1;labelBackgroundColor=none;startArrow=none;startFill=0;startSize=8;endArrow=open;endFill=0;endSize=16;fontFamily=Verdana;fontSize=12;dashed=1;entryX=0.5;entryY=1;entryDx=0;entryDy=0;" edge="1" parent="1" target="q-n3bbQd4MvI7GB6hKos-4">
          <mxGeometry relative="1" as="geometry">
            <Array as="points">
              <mxPoint x="370" y="1070" />
              <mxPoint x="215" y="1070" />
            </Array>
            <mxPoint x="370" y="920" as="sourcePoint" />
          </mxGeometry>
        </mxCell>
        <mxCell id="q-n3bbQd4MvI7GB6hKos-14" style="edgeStyle=orthogonalEdgeStyle;rounded=0;html=1;dashed=1;labelBackgroundColor=none;startArrow=none;startFill=0;startSize=8;endArrow=open;endFill=0;endSize=16;fontFamily=Verdana;fontSize=12;exitX=0.5;exitY=0;exitDx=0;exitDy=0;" edge="1" parent="1" source="q-n3bbQd4MvI7GB6hKos-7" target="q-n3bbQd4MvI7GB6hKos-6">
          <mxGeometry relative="1" as="geometry">
            <mxPoint x="660" y="902.5" as="sourcePoint" />
            <Array as="points">
              <mxPoint x="775" y="1130" />
            </Array>
          </mxGeometry>
        </mxCell>
        <mxCell id="q-n3bbQd4MvI7GB6hKos-15" style="edgeStyle=orthogonalEdgeStyle;rounded=0;html=1;labelBackgroundColor=none;startArrow=none;startFill=0;startSize=8;endArrow=none;endFill=0;endSize=16;fontFamily=Verdana;fontSize=12;exitX=0;exitY=0;exitDx=25;exitDy=0;exitPerimeter=0;" edge="1" parent="1" source="q-n3bbQd4MvI7GB6hKos-3" target="q-n3bbQd4MvI7GB6hKos-2">
          <mxGeometry relative="1" as="geometry">
            <Array as="points">
              <mxPoint x="542" y="1340" />
              <mxPoint x="695" y="1340" />
            </Array>
          </mxGeometry>
        </mxCell>
        <mxCell id="q-n3bbQd4MvI7GB6hKos-16" style="edgeStyle=orthogonalEdgeStyle;rounded=0;html=1;labelBackgroundColor=none;startArrow=none;startFill=0;startSize=8;endArrow=none;endFill=0;endSize=16;fontFamily=Verdana;fontSize=12;entryX=0;entryY=0;entryDx=290;entryDy=170;entryPerimeter=0;" edge="1" parent="1" source="q-n3bbQd4MvI7GB6hKos-3" target="q-n3bbQd4MvI7GB6hKos-1">
          <mxGeometry relative="1" as="geometry">
            <Array as="points">
              <mxPoint x="280" y="1345" />
            </Array>
            <mxPoint x="280" y="1220" as="targetPoint" />
          </mxGeometry>
        </mxCell>
        <mxCell id="q-n3bbQd4MvI7GB6hKos-17" value="«moudel»&lt;br&gt;&lt;b&gt;Geth&lt;/b&gt;" style="html=1;dropTarget=0;" vertex="1" parent="1">
          <mxGeometry x="300" y="870" width="120" height="50" as="geometry" />
        </mxCell>
        <mxCell id="q-n3bbQd4MvI7GB6hKos-18" value="" style="shape=module;jettyWidth=8;jettyHeight=4;" vertex="1" parent="q-n3bbQd4MvI7GB6hKos-17">
          <mxGeometry x="1" width="20" height="20" relative="1" as="geometry">
            <mxPoint x="-27" y="7" as="offset" />
          </mxGeometry>
        </mxCell>
        <mxCell id="q-n3bbQd4MvI7GB6hKos-19" value="«moudel»&lt;br&gt;&lt;b&gt;Chainbase&lt;/b&gt;" style="html=1;dropTarget=0;" vertex="1" parent="1">
          <mxGeometry x="310" y="930" width="120" height="50" as="geometry" />
        </mxCell>
        <mxCell id="q-n3bbQd4MvI7GB6hKos-20" value="" style="shape=module;jettyWidth=8;jettyHeight=4;" vertex="1" parent="q-n3bbQd4MvI7GB6hKos-19">
          <mxGeometry x="1" width="20" height="20" relative="1" as="geometry">
            <mxPoint x="-27" y="7" as="offset" />
          </mxGeometry>
        </mxCell>
        <mxCell id="q-n3bbQd4MvI7GB6hKos-21" value="«moudel»&lt;br&gt;&lt;b&gt;Etherscan&lt;/b&gt;" style="html=1;dropTarget=0;" vertex="1" parent="1">
          <mxGeometry x="300" y="1000" width="120" height="50" as="geometry" />
        </mxCell>
        <mxCell id="q-n3bbQd4MvI7GB6hKos-22" value="" style="shape=module;jettyWidth=8;jettyHeight=4;" vertex="1" parent="q-n3bbQd4MvI7GB6hKos-21">
          <mxGeometry x="1" width="20" height="20" relative="1" as="geometry">
            <mxPoint x="-27" y="7" as="offset" />
          </mxGeometry>
        </mxCell>
        <mxCell id="q-n3bbQd4MvI7GB6hKos-23" value="«moudel»&lt;br&gt;&lt;b&gt;Multichain&lt;/b&gt;" style="html=1;dropTarget=0;" vertex="1" parent="1">
          <mxGeometry x="550" y="880" width="120" height="50" as="geometry" />
        </mxCell>
        <mxCell id="q-n3bbQd4MvI7GB6hKos-24" value="" style="shape=module;jettyWidth=8;jettyHeight=4;" vertex="1" parent="q-n3bbQd4MvI7GB6hKos-23">
          <mxGeometry x="1" width="20" height="20" relative="1" as="geometry">
            <mxPoint x="-27" y="7" as="offset" />
          </mxGeometry>
        </mxCell>
        <mxCell id="q-n3bbQd4MvI7GB6hKos-32" value="交易匹配" style="text;html=1;align=center;verticalAlign=middle;resizable=0;points=[];autosize=1;strokeColor=none;fillColor=none;" vertex="1" parent="1">
          <mxGeometry x="450" y="1326" width="70" height="30" as="geometry" />
        </mxCell>
      </root>
    </mxGraphModel>
  </diagram>
  <diagram id="rcdv-w22N2hyxvGLZBl2" name="整体结构示意">
    <mxGraphModel dx="1434" dy="739" grid="1" gridSize="10" guides="1" tooltips="1" connect="1" arrows="1" fold="1" page="1" pageScale="1" pageWidth="827" pageHeight="1169" math="0" shadow="0">
      <root>
        <mxCell id="0" />
        <mxCell id="1" parent="0" />
        <mxCell id="EMe0omC9YQJNo4YJj9LU-9" value="去中心化金融&lt;br&gt;跨链监控系统" style="whiteSpace=wrap;html=1;" parent="1" vertex="1">
          <mxGeometry x="351" y="110" width="100" height="40" as="geometry" />
        </mxCell>
        <mxCell id="EMe0omC9YQJNo4YJj9LU-10" value="数据收集" style="whiteSpace=wrap;html=1;" parent="1" vertex="1">
          <mxGeometry x="87" y="200" width="100" height="40" as="geometry" />
        </mxCell>
        <mxCell id="EMe0omC9YQJNo4YJj9LU-11" value="" style="edgeStyle=elbowEdgeStyle;elbow=vertical;html=1;rounded=1;curved=0;sourcePerimeterSpacing=0;targetPerimeterSpacing=0;startSize=6;endSize=6;" parent="1" source="EMe0omC9YQJNo4YJj9LU-9" target="EMe0omC9YQJNo4YJj9LU-10" edge="1">
          <mxGeometry relative="1" as="geometry" />
        </mxCell>
        <mxCell id="EMe0omC9YQJNo4YJj9LU-12" value="异常检测" style="whiteSpace=wrap;html=1;" parent="1" vertex="1">
          <mxGeometry x="464" y="200" width="100" height="40" as="geometry" />
        </mxCell>
        <mxCell id="EMe0omC9YQJNo4YJj9LU-13" value="" style="edgeStyle=elbowEdgeStyle;elbow=vertical;html=1;rounded=1;curved=0;sourcePerimeterSpacing=0;targetPerimeterSpacing=0;startSize=6;endSize=6;" parent="1" source="EMe0omC9YQJNo4YJj9LU-9" target="EMe0omC9YQJNo4YJj9LU-12" edge="1">
          <mxGeometry relative="1" as="geometry" />
        </mxCell>
        <mxCell id="EMe0omC9YQJNo4YJj9LU-15" value="交易匹配" style="whiteSpace=wrap;html=1;" parent="1" vertex="1">
          <mxGeometry x="259" y="200" width="100" height="40" as="geometry" />
        </mxCell>
        <mxCell id="EMe0omC9YQJNo4YJj9LU-17" value="" style="edgeStyle=elbowEdgeStyle;elbow=vertical;html=1;rounded=1;curved=0;sourcePerimeterSpacing=0;targetPerimeterSpacing=0;startSize=6;endSize=6;exitX=0.5;exitY=1;exitDx=0;exitDy=0;entryX=0.5;entryY=0;entryDx=0;entryDy=0;" parent="1" source="EMe0omC9YQJNo4YJj9LU-9" target="EMe0omC9YQJNo4YJj9LU-18" edge="1">
          <mxGeometry relative="1" as="geometry">
            <mxPoint x="330" y="160" as="sourcePoint" />
            <mxPoint x="561" y="200" as="targetPoint" />
          </mxGeometry>
        </mxCell>
        <mxCell id="EMe0omC9YQJNo4YJj9LU-18" value="异常警报" style="whiteSpace=wrap;html=1;" parent="1" vertex="1">
          <mxGeometry x="640" y="200" width="100" height="40" as="geometry" />
        </mxCell>
        <mxCell id="EMe0omC9YQJNo4YJj9LU-19" value="" style="edgeStyle=elbowEdgeStyle;elbow=vertical;html=1;rounded=1;curved=0;sourcePerimeterSpacing=0;targetPerimeterSpacing=0;startSize=6;endSize=6;exitX=0.5;exitY=1;exitDx=0;exitDy=0;entryX=0.5;entryY=0;entryDx=0;entryDy=0;" parent="1" source="EMe0omC9YQJNo4YJj9LU-9" target="EMe0omC9YQJNo4YJj9LU-15" edge="1">
          <mxGeometry relative="1" as="geometry">
            <mxPoint x="411" y="160" as="sourcePoint" />
            <mxPoint x="200" y="210" as="targetPoint" />
          </mxGeometry>
        </mxCell>
        <mxCell id="EMe0omC9YQJNo4YJj9LU-22" value="从数据源获取原生数据" style="whiteSpace=wrap;html=1;align=center;verticalAlign=middle;treeFolding=1;treeMoving=1;newEdgeStyle={&quot;edgeStyle&quot;:&quot;elbowEdgeStyle&quot;,&quot;startArrow&quot;:&quot;none&quot;,&quot;endArrow&quot;:&quot;none&quot;};" parent="1" vertex="1">
          <mxGeometry x="60" y="280" width="30" height="150" as="geometry" />
        </mxCell>
        <mxCell id="EMe0omC9YQJNo4YJj9LU-23" value="" style="edgeStyle=elbowEdgeStyle;elbow=vertical;sourcePerimeterSpacing=0;targetPerimeterSpacing=0;startArrow=none;endArrow=none;rounded=0;curved=0;exitX=0.5;exitY=1;exitDx=0;exitDy=0;" parent="1" source="EMe0omC9YQJNo4YJj9LU-10" target="EMe0omC9YQJNo4YJj9LU-22" edge="1">
          <mxGeometry relative="1" as="geometry">
            <mxPoint x="190" y="240" as="sourcePoint" />
          </mxGeometry>
        </mxCell>
        <mxCell id="EMe0omC9YQJNo4YJj9LU-24" value="" style="edgeStyle=elbowEdgeStyle;elbow=vertical;sourcePerimeterSpacing=0;targetPerimeterSpacing=0;startArrow=none;endArrow=none;rounded=0;curved=0;entryX=0.5;entryY=0;entryDx=0;entryDy=0;exitX=0.5;exitY=1;exitDx=0;exitDy=0;" parent="1" source="EMe0omC9YQJNo4YJj9LU-10" target="EMe0omC9YQJNo4YJj9LU-25" edge="1">
          <mxGeometry relative="1" as="geometry">
            <mxPoint x="190" y="240" as="sourcePoint" />
            <mxPoint x="120" y="280" as="targetPoint" />
          </mxGeometry>
        </mxCell>
        <mxCell id="EMe0omC9YQJNo4YJj9LU-25" value="标准化处理数据" style="whiteSpace=wrap;html=1;align=center;verticalAlign=middle;treeFolding=1;treeMoving=1;newEdgeStyle={&quot;edgeStyle&quot;:&quot;elbowEdgeStyle&quot;,&quot;startArrow&quot;:&quot;none&quot;,&quot;endArrow&quot;:&quot;none&quot;};" parent="1" vertex="1">
          <mxGeometry x="100" y="280" width="30" height="150" as="geometry" />
        </mxCell>
        <mxCell id="EMe0omC9YQJNo4YJj9LU-27" value="" style="edgeStyle=elbowEdgeStyle;elbow=vertical;sourcePerimeterSpacing=0;targetPerimeterSpacing=0;startArrow=none;endArrow=none;rounded=0;curved=0;entryX=0.5;entryY=0;entryDx=0;entryDy=0;exitX=0.5;exitY=1;exitDx=0;exitDy=0;" parent="1" source="EMe0omC9YQJNo4YJj9LU-10" target="EMe0omC9YQJNo4YJj9LU-28" edge="1">
          <mxGeometry relative="1" as="geometry">
            <mxPoint x="173" y="250" as="sourcePoint" />
            <mxPoint x="125" y="290" as="targetPoint" />
          </mxGeometry>
        </mxCell>
        <mxCell id="EMe0omC9YQJNo4YJj9LU-28" value="识别跨链信息" style="whiteSpace=wrap;html=1;align=center;verticalAlign=middle;treeFolding=1;treeMoving=1;newEdgeStyle={&quot;edgeStyle&quot;:&quot;elbowEdgeStyle&quot;,&quot;startArrow&quot;:&quot;none&quot;,&quot;endArrow&quot;:&quot;none&quot;};" parent="1" vertex="1">
          <mxGeometry x="140" y="280" width="30" height="150" as="geometry" />
        </mxCell>
        <mxCell id="EMe0omC9YQJNo4YJj9LU-29" value="数据库存储与管理" style="whiteSpace=wrap;html=1;align=center;verticalAlign=middle;treeFolding=1;treeMoving=1;newEdgeStyle={&quot;edgeStyle&quot;:&quot;elbowEdgeStyle&quot;,&quot;startArrow&quot;:&quot;none&quot;,&quot;endArrow&quot;:&quot;none&quot;};" parent="1" vertex="1">
          <mxGeometry x="183" y="280" width="30" height="150" as="geometry" />
        </mxCell>
        <mxCell id="EMe0omC9YQJNo4YJj9LU-30" value="" style="edgeStyle=elbowEdgeStyle;elbow=vertical;sourcePerimeterSpacing=0;targetPerimeterSpacing=0;startArrow=none;endArrow=none;rounded=0;curved=0;entryX=0.5;entryY=0;entryDx=0;entryDy=0;exitX=0.5;exitY=1;exitDx=0;exitDy=0;" parent="1" source="EMe0omC9YQJNo4YJj9LU-10" target="EMe0omC9YQJNo4YJj9LU-29" edge="1">
          <mxGeometry relative="1" as="geometry">
            <mxPoint x="173" y="250" as="sourcePoint" />
            <mxPoint x="165" y="290" as="targetPoint" />
          </mxGeometry>
        </mxCell>
        <mxCell id="EMe0omC9YQJNo4YJj9LU-31" value="匹配信息识别" style="whiteSpace=wrap;html=1;align=center;verticalAlign=middle;treeFolding=1;treeMoving=1;newEdgeStyle={&quot;edgeStyle&quot;:&quot;elbowEdgeStyle&quot;,&quot;startArrow&quot;:&quot;none&quot;,&quot;endArrow&quot;:&quot;none&quot;};" parent="1" vertex="1">
          <mxGeometry x="232.5" y="280" width="30" height="150" as="geometry" />
        </mxCell>
        <mxCell id="EMe0omC9YQJNo4YJj9LU-32" value="匹配规则制定" style="whiteSpace=wrap;html=1;align=center;verticalAlign=middle;treeFolding=1;treeMoving=1;newEdgeStyle={&quot;edgeStyle&quot;:&quot;elbowEdgeStyle&quot;,&quot;startArrow&quot;:&quot;none&quot;,&quot;endArrow&quot;:&quot;none&quot;};" parent="1" vertex="1">
          <mxGeometry x="272.5" y="280" width="30" height="150" as="geometry" />
        </mxCell>
        <mxCell id="EMe0omC9YQJNo4YJj9LU-33" value="缺失数据补充" style="whiteSpace=wrap;html=1;align=center;verticalAlign=middle;treeFolding=1;treeMoving=1;newEdgeStyle={&quot;edgeStyle&quot;:&quot;elbowEdgeStyle&quot;,&quot;startArrow&quot;:&quot;none&quot;,&quot;endArrow&quot;:&quot;none&quot;};" parent="1" vertex="1">
          <mxGeometry x="312.5" y="280" width="30" height="150" as="geometry" />
        </mxCell>
        <mxCell id="EMe0omC9YQJNo4YJj9LU-34" value="正常匹配判断" style="whiteSpace=wrap;html=1;align=center;verticalAlign=middle;treeFolding=1;treeMoving=1;newEdgeStyle={&quot;edgeStyle&quot;:&quot;elbowEdgeStyle&quot;,&quot;startArrow&quot;:&quot;none&quot;,&quot;endArrow&quot;:&quot;none&quot;};" parent="1" vertex="1">
          <mxGeometry x="355.5" y="280" width="30" height="150" as="geometry" />
        </mxCell>
        <mxCell id="EMe0omC9YQJNo4YJj9LU-35" value="" style="edgeStyle=elbowEdgeStyle;elbow=vertical;sourcePerimeterSpacing=0;targetPerimeterSpacing=0;startArrow=none;endArrow=none;rounded=0;curved=0;exitX=0.5;exitY=1;exitDx=0;exitDy=0;entryX=0.5;entryY=0;entryDx=0;entryDy=0;" parent="1" source="EMe0omC9YQJNo4YJj9LU-15" target="EMe0omC9YQJNo4YJj9LU-31" edge="1">
          <mxGeometry relative="1" as="geometry">
            <mxPoint x="298" y="240" as="sourcePoint" />
            <mxPoint x="247.5" y="280" as="targetPoint" />
          </mxGeometry>
        </mxCell>
        <mxCell id="EMe0omC9YQJNo4YJj9LU-36" value="" style="edgeStyle=elbowEdgeStyle;elbow=vertical;sourcePerimeterSpacing=0;targetPerimeterSpacing=0;startArrow=none;endArrow=none;rounded=0;curved=0;entryX=0.5;entryY=0;entryDx=0;entryDy=0;exitX=0.5;exitY=1;exitDx=0;exitDy=0;" parent="1" source="EMe0omC9YQJNo4YJj9LU-15" target="EMe0omC9YQJNo4YJj9LU-32" edge="1">
          <mxGeometry relative="1" as="geometry">
            <mxPoint x="298" y="240" as="sourcePoint" />
            <mxPoint x="287.5" y="280" as="targetPoint" />
          </mxGeometry>
        </mxCell>
        <mxCell id="EMe0omC9YQJNo4YJj9LU-37" value="" style="edgeStyle=elbowEdgeStyle;elbow=vertical;sourcePerimeterSpacing=0;targetPerimeterSpacing=0;startArrow=none;endArrow=none;rounded=0;curved=0;entryX=0.5;entryY=0;entryDx=0;entryDy=0;exitX=0.5;exitY=1;exitDx=0;exitDy=0;" parent="1" source="EMe0omC9YQJNo4YJj9LU-15" edge="1">
          <mxGeometry relative="1" as="geometry">
            <mxPoint x="298" y="240" as="sourcePoint" />
            <mxPoint x="327.5" y="280" as="targetPoint" />
          </mxGeometry>
        </mxCell>
        <mxCell id="EMe0omC9YQJNo4YJj9LU-38" value="" style="edgeStyle=elbowEdgeStyle;elbow=vertical;sourcePerimeterSpacing=0;targetPerimeterSpacing=0;startArrow=none;endArrow=none;rounded=0;curved=0;entryX=0.5;entryY=0;entryDx=0;entryDy=0;exitX=0.5;exitY=1;exitDx=0;exitDy=0;" parent="1" source="EMe0omC9YQJNo4YJj9LU-15" target="EMe0omC9YQJNo4YJj9LU-34" edge="1">
          <mxGeometry relative="1" as="geometry">
            <mxPoint x="298" y="240" as="sourcePoint" />
            <mxPoint x="370.5" y="280" as="targetPoint" />
          </mxGeometry>
        </mxCell>
        <mxCell id="EMe0omC9YQJNo4YJj9LU-41" value="" style="edgeStyle=elbowEdgeStyle;elbow=vertical;sourcePerimeterSpacing=0;targetPerimeterSpacing=0;startArrow=none;endArrow=none;rounded=0;curved=0;exitX=0.5;exitY=1;exitDx=0;exitDy=0;entryX=0.5;entryY=0;entryDx=0;entryDy=0;" parent="1" source="EMe0omC9YQJNo4YJj9LU-12" target="EMe0omC9YQJNo4YJj9LU-44" edge="1">
          <mxGeometry relative="1" as="geometry">
            <mxPoint x="461.5" y="240" as="sourcePoint" />
            <mxPoint x="420" y="280" as="targetPoint" />
          </mxGeometry>
        </mxCell>
        <mxCell id="EMe0omC9YQJNo4YJj9LU-42" value="" style="edgeStyle=elbowEdgeStyle;elbow=vertical;sourcePerimeterSpacing=0;targetPerimeterSpacing=0;startArrow=none;endArrow=none;rounded=0;curved=0;exitX=0.5;exitY=1;exitDx=0;exitDy=0;entryX=0.5;entryY=0;entryDx=0;entryDy=0;" parent="1" source="EMe0omC9YQJNo4YJj9LU-12" target="EMe0omC9YQJNo4YJj9LU-45" edge="1">
          <mxGeometry relative="1" as="geometry">
            <mxPoint x="461.5" y="240" as="sourcePoint" />
            <mxPoint x="500" y="280" as="targetPoint" />
          </mxGeometry>
        </mxCell>
        <mxCell id="EMe0omC9YQJNo4YJj9LU-44" value="源链检测" style="whiteSpace=wrap;html=1;align=center;verticalAlign=middle;treeFolding=1;treeMoving=1;newEdgeStyle={&quot;edgeStyle&quot;:&quot;elbowEdgeStyle&quot;,&quot;startArrow&quot;:&quot;none&quot;,&quot;endArrow&quot;:&quot;none&quot;};" parent="1" vertex="1">
          <mxGeometry x="414" y="280" width="60" height="40" as="geometry" />
        </mxCell>
        <mxCell id="EMe0omC9YQJNo4YJj9LU-45" value="目标链&lt;br&gt;检测" style="whiteSpace=wrap;html=1;align=center;verticalAlign=middle;treeFolding=1;treeMoving=1;newEdgeStyle={&quot;edgeStyle&quot;:&quot;elbowEdgeStyle&quot;,&quot;startArrow&quot;:&quot;none&quot;,&quot;endArrow&quot;:&quot;none&quot;};" parent="1" vertex="1">
          <mxGeometry x="544.5" y="280" width="59" height="40" as="geometry" />
        </mxCell>
        <mxCell id="EMe0omC9YQJNo4YJj9LU-46" value="" style="edgeStyle=elbowEdgeStyle;elbow=vertical;sourcePerimeterSpacing=0;targetPerimeterSpacing=0;startArrow=none;endArrow=none;rounded=0;curved=0;exitX=0.5;exitY=1;exitDx=0;exitDy=0;entryX=0.5;entryY=0;entryDx=0;entryDy=0;" parent="1" source="EMe0omC9YQJNo4YJj9LU-44" target="EMe0omC9YQJNo4YJj9LU-47" edge="1">
          <mxGeometry relative="1" as="geometry">
            <mxPoint x="442" y="320" as="sourcePoint" />
            <mxPoint x="400" y="360" as="targetPoint" />
          </mxGeometry>
        </mxCell>
        <mxCell id="EMe0omC9YQJNo4YJj9LU-47" value="资产类型检查" style="whiteSpace=wrap;html=1;align=center;verticalAlign=middle;treeFolding=1;treeMoving=1;newEdgeStyle={&quot;edgeStyle&quot;:&quot;elbowEdgeStyle&quot;,&quot;startArrow&quot;:&quot;none&quot;,&quot;endArrow&quot;:&quot;none&quot;};" parent="1" vertex="1">
          <mxGeometry x="390" y="340" width="30" height="90" as="geometry" />
        </mxCell>
        <mxCell id="EMe0omC9YQJNo4YJj9LU-48" value="用户存储检查" style="whiteSpace=wrap;html=1;align=center;verticalAlign=middle;treeFolding=1;treeMoving=1;newEdgeStyle={&quot;edgeStyle&quot;:&quot;elbowEdgeStyle&quot;,&quot;startArrow&quot;:&quot;none&quot;,&quot;endArrow&quot;:&quot;none&quot;};" parent="1" vertex="1">
          <mxGeometry x="429" y="340" width="30" height="90" as="geometry" />
        </mxCell>
        <mxCell id="EMe0omC9YQJNo4YJj9LU-49" value="" style="edgeStyle=elbowEdgeStyle;elbow=vertical;sourcePerimeterSpacing=0;targetPerimeterSpacing=0;startArrow=none;endArrow=none;rounded=0;curved=0;exitX=0.5;exitY=1;exitDx=0;exitDy=0;entryX=0.5;entryY=0;entryDx=0;entryDy=0;" parent="1" source="EMe0omC9YQJNo4YJj9LU-44" target="EMe0omC9YQJNo4YJj9LU-48" edge="1">
          <mxGeometry relative="1" as="geometry">
            <mxPoint x="454" y="330" as="sourcePoint" />
            <mxPoint x="415" y="350" as="targetPoint" />
          </mxGeometry>
        </mxCell>
        <mxCell id="EMe0omC9YQJNo4YJj9LU-50" value="项目方收款检查" style="whiteSpace=wrap;html=1;align=center;verticalAlign=middle;treeFolding=1;treeMoving=1;newEdgeStyle={&quot;edgeStyle&quot;:&quot;elbowEdgeStyle&quot;,&quot;startArrow&quot;:&quot;none&quot;,&quot;endArrow&quot;:&quot;none&quot;};" parent="1" vertex="1">
          <mxGeometry x="470" y="340" width="30" height="90" as="geometry" />
        </mxCell>
        <mxCell id="EMe0omC9YQJNo4YJj9LU-51" value="" style="edgeStyle=elbowEdgeStyle;elbow=vertical;sourcePerimeterSpacing=0;targetPerimeterSpacing=0;startArrow=none;endArrow=none;rounded=0;curved=0;exitX=0.5;exitY=1;exitDx=0;exitDy=0;entryX=0.5;entryY=0;entryDx=0;entryDy=0;" parent="1" source="EMe0omC9YQJNo4YJj9LU-44" target="EMe0omC9YQJNo4YJj9LU-50" edge="1">
          <mxGeometry relative="1" as="geometry">
            <mxPoint x="454" y="330" as="sourcePoint" />
            <mxPoint x="454" y="350" as="targetPoint" />
          </mxGeometry>
        </mxCell>
        <mxCell id="EMe0omC9YQJNo4YJj9LU-52" value="用户收款检查" style="whiteSpace=wrap;html=1;align=center;verticalAlign=middle;treeFolding=1;treeMoving=1;newEdgeStyle={&quot;edgeStyle&quot;:&quot;elbowEdgeStyle&quot;,&quot;startArrow&quot;:&quot;none&quot;,&quot;endArrow&quot;:&quot;none&quot;};" parent="1" vertex="1">
          <mxGeometry x="520" y="340" width="30" height="90" as="geometry" />
        </mxCell>
        <mxCell id="EMe0omC9YQJNo4YJj9LU-53" value="项目方转账检查" style="whiteSpace=wrap;html=1;align=center;verticalAlign=middle;treeFolding=1;treeMoving=1;newEdgeStyle={&quot;edgeStyle&quot;:&quot;elbowEdgeStyle&quot;,&quot;startArrow&quot;:&quot;none&quot;,&quot;endArrow&quot;:&quot;none&quot;};" parent="1" vertex="1">
          <mxGeometry x="559" y="340" width="30" height="90" as="geometry" />
        </mxCell>
        <mxCell id="EMe0omC9YQJNo4YJj9LU-54" value="匹配资金价值检查" style="whiteSpace=wrap;html=1;align=center;verticalAlign=middle;treeFolding=1;treeMoving=1;newEdgeStyle={&quot;edgeStyle&quot;:&quot;elbowEdgeStyle&quot;,&quot;startArrow&quot;:&quot;none&quot;,&quot;endArrow&quot;:&quot;none&quot;};" parent="1" vertex="1">
          <mxGeometry x="600" y="340" width="30" height="90" as="geometry" />
        </mxCell>
        <mxCell id="EMe0omC9YQJNo4YJj9LU-55" value="" style="edgeStyle=elbowEdgeStyle;elbow=vertical;sourcePerimeterSpacing=0;targetPerimeterSpacing=0;startArrow=none;endArrow=none;rounded=0;curved=0;exitX=0.5;exitY=1;exitDx=0;exitDy=0;entryX=0.5;entryY=0;entryDx=0;entryDy=0;" parent="1" source="EMe0omC9YQJNo4YJj9LU-45" target="EMe0omC9YQJNo4YJj9LU-52" edge="1">
          <mxGeometry relative="1" as="geometry">
            <mxPoint x="573" y="320" as="sourcePoint" />
            <mxPoint x="534" y="340" as="targetPoint" />
          </mxGeometry>
        </mxCell>
        <mxCell id="EMe0omC9YQJNo4YJj9LU-56" value="" style="edgeStyle=elbowEdgeStyle;elbow=vertical;sourcePerimeterSpacing=0;targetPerimeterSpacing=0;startArrow=none;endArrow=none;rounded=0;curved=0;exitX=0.5;exitY=1;exitDx=0;exitDy=0;entryX=0.5;entryY=0;entryDx=0;entryDy=0;" parent="1" source="EMe0omC9YQJNo4YJj9LU-45" target="EMe0omC9YQJNo4YJj9LU-53" edge="1">
          <mxGeometry relative="1" as="geometry">
            <mxPoint x="573" y="320" as="sourcePoint" />
            <mxPoint x="573" y="340" as="targetPoint" />
          </mxGeometry>
        </mxCell>
        <mxCell id="EMe0omC9YQJNo4YJj9LU-57" value="" style="edgeStyle=elbowEdgeStyle;elbow=vertical;sourcePerimeterSpacing=0;targetPerimeterSpacing=0;startArrow=none;endArrow=none;rounded=0;curved=0;exitX=0.5;exitY=1;exitDx=0;exitDy=0;entryX=0.5;entryY=0;entryDx=0;entryDy=0;" parent="1" source="EMe0omC9YQJNo4YJj9LU-45" target="EMe0omC9YQJNo4YJj9LU-54" edge="1">
          <mxGeometry relative="1" as="geometry">
            <mxPoint x="573" y="320" as="sourcePoint" />
            <mxPoint x="614" y="340" as="targetPoint" />
          </mxGeometry>
        </mxCell>
      </root>
    </mxGraphModel>
  </diagram>
  <diagram id="jwuW4QCnMMGyIwsY1kzB" name="交易匹配模块示意图">
    <mxGraphModel dx="956" dy="493" grid="1" gridSize="10" guides="1" tooltips="1" connect="1" arrows="1" fold="1" page="1" pageScale="1" pageWidth="827" pageHeight="1169" math="0" shadow="0">
      <root>
        <mxCell id="0" />
        <mxCell id="1" parent="0" />
        <mxCell id="8paRfkm_Z6a1zKRgxGYo-17" style="edgeStyle=orthogonalEdgeStyle;rounded=0;orthogonalLoop=1;jettySize=auto;html=1;entryX=0.5;entryY=0;entryDx=0;entryDy=0;" edge="1" parent="1" source="8paRfkm_Z6a1zKRgxGYo-15" target="8paRfkm_Z6a1zKRgxGYo-5">
          <mxGeometry relative="1" as="geometry" />
        </mxCell>
        <mxCell id="8paRfkm_Z6a1zKRgxGYo-15" value="" style="rounded=0;whiteSpace=wrap;html=1;" vertex="1" parent="1">
          <mxGeometry x="305" y="250" width="170" height="110" as="geometry" />
        </mxCell>
        <mxCell id="8paRfkm_Z6a1zKRgxGYo-3" value="" style="edgeStyle=orthogonalEdgeStyle;rounded=0;orthogonalLoop=1;jettySize=auto;html=1;entryX=0.5;entryY=0;entryDx=0;entryDy=0;" edge="1" parent="1" source="8paRfkm_Z6a1zKRgxGYo-1" target="8paRfkm_Z6a1zKRgxGYo-15">
          <mxGeometry relative="1" as="geometry" />
        </mxCell>
        <mxCell id="8paRfkm_Z6a1zKRgxGYo-1" value="数据库" style="rounded=0;whiteSpace=wrap;html=1;" vertex="1" parent="1">
          <mxGeometry x="350" y="170" width="80" height="30" as="geometry" />
        </mxCell>
        <mxCell id="8paRfkm_Z6a1zKRgxGYo-7" style="edgeStyle=orthogonalEdgeStyle;rounded=0;orthogonalLoop=1;jettySize=auto;html=1;entryX=0;entryY=0.5;entryDx=0;entryDy=0;dashed=1;exitX=-0.004;exitY=0.389;exitDx=0;exitDy=0;exitPerimeter=0;" edge="1" parent="1" source="8paRfkm_Z6a1zKRgxGYo-15" target="8paRfkm_Z6a1zKRgxGYo-1">
          <mxGeometry relative="1" as="geometry">
            <mxPoint x="300" y="290" as="sourcePoint" />
            <Array as="points">
              <mxPoint x="290" y="293" />
              <mxPoint x="290" y="185" />
            </Array>
          </mxGeometry>
        </mxCell>
        <mxCell id="8paRfkm_Z6a1zKRgxGYo-18" style="edgeStyle=orthogonalEdgeStyle;rounded=0;orthogonalLoop=1;jettySize=auto;html=1;entryX=0;entryY=0.5;entryDx=0;entryDy=0;" edge="1" parent="1">
          <mxGeometry relative="1" as="geometry">
            <mxPoint x="370" y="297" as="sourcePoint" />
            <mxPoint x="414" y="297" as="targetPoint" />
          </mxGeometry>
        </mxCell>
        <mxCell id="8paRfkm_Z6a1zKRgxGYo-2" value="匹配&lt;br&gt;判断" style="whiteSpace=wrap;html=1;rounded=0;" vertex="1" parent="1">
          <mxGeometry x="319" y="280" width="51" height="50" as="geometry" />
        </mxCell>
        <mxCell id="8paRfkm_Z6a1zKRgxGYo-8" style="edgeStyle=orthogonalEdgeStyle;rounded=0;orthogonalLoop=1;jettySize=auto;html=1;entryX=1;entryY=0.5;entryDx=0;entryDy=0;dashed=1;" edge="1" parent="1" source="8paRfkm_Z6a1zKRgxGYo-5" target="8paRfkm_Z6a1zKRgxGYo-1">
          <mxGeometry relative="1" as="geometry">
            <Array as="points">
              <mxPoint x="490" y="420" />
              <mxPoint x="490" y="185" />
            </Array>
          </mxGeometry>
        </mxCell>
        <mxCell id="8paRfkm_Z6a1zKRgxGYo-5" value="数据补充" style="whiteSpace=wrap;html=1;rounded=0;" vertex="1" parent="1">
          <mxGeometry x="350" y="400" width="80" height="35" as="geometry" />
        </mxCell>
        <mxCell id="8paRfkm_Z6a1zKRgxGYo-9" value="交易记录" style="text;html=1;align=center;verticalAlign=middle;resizable=0;points=[];autosize=1;strokeColor=none;fillColor=none;" vertex="1" parent="1">
          <mxGeometry x="379" y="210" width="70" height="30" as="geometry" />
        </mxCell>
        <mxCell id="8paRfkm_Z6a1zKRgxGYo-10" value="区块信息" style="text;html=1;align=center;verticalAlign=middle;resizable=0;points=[];autosize=1;strokeColor=none;fillColor=none;" vertex="1" parent="1">
          <mxGeometry x="330" y="364" width="70" height="30" as="geometry" />
        </mxCell>
        <mxCell id="8paRfkm_Z6a1zKRgxGYo-11" value="更新" style="text;html=1;align=center;verticalAlign=middle;resizable=0;points=[];autosize=1;strokeColor=none;fillColor=none;" vertex="1" parent="1">
          <mxGeometry x="265" y="221" width="50" height="30" as="geometry" />
        </mxCell>
        <mxCell id="8paRfkm_Z6a1zKRgxGYo-12" value="插入缺失记录" style="text;html=1;align=center;verticalAlign=middle;resizable=0;points=[];autosize=1;strokeColor=none;fillColor=none;" vertex="1" parent="1">
          <mxGeometry x="440" y="370" width="100" height="30" as="geometry" />
        </mxCell>
        <mxCell id="8paRfkm_Z6a1zKRgxGYo-19" style="edgeStyle=orthogonalEdgeStyle;rounded=0;orthogonalLoop=1;jettySize=auto;html=1;exitX=0;exitY=0.75;exitDx=0;exitDy=0;entryX=1;entryY=0.75;entryDx=0;entryDy=0;" edge="1" parent="1">
          <mxGeometry relative="1" as="geometry">
            <mxPoint x="414" y="314.5" as="sourcePoint" />
            <mxPoint x="370" y="314.5" as="targetPoint" />
          </mxGeometry>
        </mxCell>
        <mxCell id="8paRfkm_Z6a1zKRgxGYo-16" value="查询&lt;br&gt;匹配" style="whiteSpace=wrap;html=1;rounded=0;" vertex="1" parent="1">
          <mxGeometry x="414" y="280" width="51" height="50" as="geometry" />
        </mxCell>
        <mxCell id="8paRfkm_Z6a1zKRgxGYo-20" value="循环" style="text;html=1;align=center;verticalAlign=middle;resizable=0;points=[];autosize=1;strokeColor=none;fillColor=none;" vertex="1" parent="1">
          <mxGeometry x="365" y="324" width="50" height="30" as="geometry" />
        </mxCell>
      </root>
    </mxGraphModel>
  </diagram>
  <diagram name="异常检测模块示意图" id="0yulfOgLb3d6LKy6Ltps">
    <mxGraphModel dx="1195" dy="616" grid="1" gridSize="10" guides="1" tooltips="1" connect="1" arrows="1" fold="1" page="1" pageScale="1" pageWidth="827" pageHeight="1169" math="0" shadow="0">
      <root>
        <mxCell id="geT-NKtaQBkqU97uFaXf-0" />
        <mxCell id="geT-NKtaQBkqU97uFaXf-1" parent="geT-NKtaQBkqU97uFaXf-0" />
        <mxCell id="U7mJPMnorM55r3zGC1ry-16" style="edgeStyle=orthogonalEdgeStyle;rounded=0;orthogonalLoop=1;jettySize=auto;html=1;entryX=0.5;entryY=0;entryDx=0;entryDy=0;fontColor=#0066CC;exitX=0.75;exitY=1;exitDx=0;exitDy=0;" edge="1" parent="geT-NKtaQBkqU97uFaXf-1" source="geT-NKtaQBkqU97uFaXf-3" target="U7mJPMnorM55r3zGC1ry-0">
          <mxGeometry relative="1" as="geometry" />
        </mxCell>
        <mxCell id="U7mJPMnorM55r3zGC1ry-21" style="edgeStyle=orthogonalEdgeStyle;rounded=0;orthogonalLoop=1;jettySize=auto;html=1;exitX=0.25;exitY=1;exitDx=0;exitDy=0;fontColor=#0f0f0f;" edge="1" parent="geT-NKtaQBkqU97uFaXf-1" source="geT-NKtaQBkqU97uFaXf-3" target="U7mJPMnorM55r3zGC1ry-20">
          <mxGeometry relative="1" as="geometry" />
        </mxCell>
        <mxCell id="geT-NKtaQBkqU97uFaXf-3" value="" style="rounded=0;whiteSpace=wrap;html=1;dashed=1;strokeColor=#0066CC;" vertex="1" parent="geT-NKtaQBkqU97uFaXf-1">
          <mxGeometry x="200" y="250" width="370" height="260" as="geometry" />
        </mxCell>
        <mxCell id="geT-NKtaQBkqU97uFaXf-4" value="" style="edgeStyle=orthogonalEdgeStyle;rounded=0;orthogonalLoop=1;jettySize=auto;html=1;entryX=0.5;entryY=0;entryDx=0;entryDy=0;" edge="1" parent="geT-NKtaQBkqU97uFaXf-1" source="geT-NKtaQBkqU97uFaXf-5" target="geT-NKtaQBkqU97uFaXf-3">
          <mxGeometry relative="1" as="geometry" />
        </mxCell>
        <mxCell id="geT-NKtaQBkqU97uFaXf-5" value="数据库A" style="rounded=0;whiteSpace=wrap;html=1;" vertex="1" parent="geT-NKtaQBkqU97uFaXf-1">
          <mxGeometry x="344.75" y="175" width="80" height="30" as="geometry" />
        </mxCell>
        <mxCell id="U7mJPMnorM55r3zGC1ry-2" value="" style="edgeStyle=orthogonalEdgeStyle;rounded=0;orthogonalLoop=1;jettySize=auto;html=1;exitX=0;exitY=0.5;exitDx=0;exitDy=0;" edge="1" parent="geT-NKtaQBkqU97uFaXf-1" source="geT-NKtaQBkqU97uFaXf-8" target="U7mJPMnorM55r3zGC1ry-1">
          <mxGeometry relative="1" as="geometry" />
        </mxCell>
        <mxCell id="geT-NKtaQBkqU97uFaXf-8" value="实际资产追踪" style="whiteSpace=wrap;html=1;rounded=0;" vertex="1" parent="geT-NKtaQBkqU97uFaXf-1">
          <mxGeometry x="329.5" y="270" width="121" height="40" as="geometry" />
        </mxCell>
        <mxCell id="geT-NKtaQBkqU97uFaXf-11" value="交易记录" style="text;html=1;align=center;verticalAlign=middle;resizable=0;points=[];autosize=1;strokeColor=none;fillColor=none;" vertex="1" parent="geT-NKtaQBkqU97uFaXf-1">
          <mxGeometry x="379" y="210" width="70" height="30" as="geometry" />
        </mxCell>
        <mxCell id="geT-NKtaQBkqU97uFaXf-13" value="更新" style="text;html=1;align=center;verticalAlign=middle;resizable=0;points=[];autosize=1;strokeColor=none;fillColor=none;" vertex="1" parent="geT-NKtaQBkqU97uFaXf-1">
          <mxGeometry x="265" y="221" width="50" height="30" as="geometry" />
        </mxCell>
        <mxCell id="U7mJPMnorM55r3zGC1ry-0" value="数据库C" style="rounded=0;whiteSpace=wrap;html=1;" vertex="1" parent="geT-NKtaQBkqU97uFaXf-1">
          <mxGeometry x="440" y="545" width="80" height="30" as="geometry" />
        </mxCell>
        <mxCell id="U7mJPMnorM55r3zGC1ry-1" value="" style="whiteSpace=wrap;html=1;rounded=0;dashed=1;strokeColor=#0066CC;" vertex="1" parent="geT-NKtaQBkqU97uFaXf-1">
          <mxGeometry x="229.5" y="350" width="130.5" height="120" as="geometry" />
        </mxCell>
        <mxCell id="U7mJPMnorM55r3zGC1ry-3" value="API查询" style="rounded=0;whiteSpace=wrap;html=1;" vertex="1" parent="geT-NKtaQBkqU97uFaXf-1">
          <mxGeometry x="254.87" y="385" width="70.25" height="30" as="geometry" />
        </mxCell>
        <mxCell id="U7mJPMnorM55r3zGC1ry-4" value="爬虫" style="rounded=0;whiteSpace=wrap;html=1;" vertex="1" parent="geT-NKtaQBkqU97uFaXf-1">
          <mxGeometry x="254.87" y="430" width="70.37" height="30" as="geometry" />
        </mxCell>
        <mxCell id="U7mJPMnorM55r3zGC1ry-5" value="&lt;u&gt;获取代币市值&lt;/u&gt;" style="text;html=1;align=center;verticalAlign=middle;resizable=0;points=[];autosize=1;strokeColor=none;fillColor=none;fontColor=#0066CC;" vertex="1" parent="geT-NKtaQBkqU97uFaXf-1">
          <mxGeometry x="240.75" y="350" width="100" height="30" as="geometry" />
        </mxCell>
        <mxCell id="U7mJPMnorM55r3zGC1ry-6" value="" style="whiteSpace=wrap;html=1;rounded=0;dashed=1;strokeColor=#0066CC;" vertex="1" parent="geT-NKtaQBkqU97uFaXf-1">
          <mxGeometry x="410" y="320" width="150" height="180" as="geometry" />
        </mxCell>
        <mxCell id="U7mJPMnorM55r3zGC1ry-11" value="" style="edgeStyle=orthogonalEdgeStyle;rounded=0;orthogonalLoop=1;jettySize=auto;html=1;fontColor=#0066CC;entryX=0.5;entryY=0;entryDx=0;entryDy=0;" edge="1" parent="geT-NKtaQBkqU97uFaXf-1" source="U7mJPMnorM55r3zGC1ry-7" target="U7mJPMnorM55r3zGC1ry-8">
          <mxGeometry relative="1" as="geometry" />
        </mxCell>
        <mxCell id="U7mJPMnorM55r3zGC1ry-7" value="交易重现" style="rounded=0;whiteSpace=wrap;html=1;" vertex="1" parent="geT-NKtaQBkqU97uFaXf-1">
          <mxGeometry x="450.75" y="355" width="70.25" height="30" as="geometry" />
        </mxCell>
        <mxCell id="U7mJPMnorM55r3zGC1ry-8" value="识别转账行为" style="rounded=0;whiteSpace=wrap;html=1;" vertex="1" parent="geT-NKtaQBkqU97uFaXf-1">
          <mxGeometry x="441.76" y="410" width="88.24" height="30" as="geometry" />
        </mxCell>
        <mxCell id="U7mJPMnorM55r3zGC1ry-9" value="&lt;u&gt;构建资金流&lt;/u&gt;" style="text;html=1;align=center;verticalAlign=middle;resizable=0;points=[];autosize=1;strokeColor=none;fillColor=none;fontColor=#0066CC;" vertex="1" parent="geT-NKtaQBkqU97uFaXf-1">
          <mxGeometry x="445" y="319" width="80" height="30" as="geometry" />
        </mxCell>
        <mxCell id="U7mJPMnorM55r3zGC1ry-10" value="建立资金流向图" style="rounded=0;whiteSpace=wrap;html=1;" vertex="1" parent="geT-NKtaQBkqU97uFaXf-1">
          <mxGeometry x="441.76" y="461" width="88.24" height="30" as="geometry" />
        </mxCell>
        <mxCell id="U7mJPMnorM55r3zGC1ry-13" value="" style="endArrow=classic;html=1;rounded=0;fontColor=#0066CC;exitX=0.5;exitY=1;exitDx=0;exitDy=0;entryX=0.5;entryY=0;entryDx=0;entryDy=0;" edge="1" parent="geT-NKtaQBkqU97uFaXf-1" source="U7mJPMnorM55r3zGC1ry-8" target="U7mJPMnorM55r3zGC1ry-10">
          <mxGeometry width="50" height="50" relative="1" as="geometry">
            <mxPoint x="390" y="400" as="sourcePoint" />
            <mxPoint x="486" y="450" as="targetPoint" />
          </mxGeometry>
        </mxCell>
        <mxCell id="U7mJPMnorM55r3zGC1ry-14" value="" style="endArrow=classic;html=1;rounded=0;fontColor=#0066CC;exitX=1;exitY=0.5;exitDx=0;exitDy=0;entryX=0;entryY=0.5;entryDx=0;entryDy=0;" edge="1" parent="geT-NKtaQBkqU97uFaXf-1" source="U7mJPMnorM55r3zGC1ry-1" target="U7mJPMnorM55r3zGC1ry-6">
          <mxGeometry width="50" height="50" relative="1" as="geometry">
            <mxPoint x="240" y="380" as="sourcePoint" />
            <mxPoint x="290" y="330" as="targetPoint" />
          </mxGeometry>
        </mxCell>
        <mxCell id="U7mJPMnorM55r3zGC1ry-15" value="&lt;u&gt;异常检测&lt;/u&gt;" style="text;html=1;align=center;verticalAlign=middle;resizable=0;points=[];autosize=1;strokeColor=none;fillColor=none;fontColor=#0066CC;" vertex="1" parent="geT-NKtaQBkqU97uFaXf-1">
          <mxGeometry x="200" y="250" width="70" height="30" as="geometry" />
        </mxCell>
        <mxCell id="U7mJPMnorM55r3zGC1ry-17" value="交易记录&lt;br&gt;&amp;amp;&lt;br&gt;代币信息" style="text;html=1;align=center;verticalAlign=middle;resizable=0;points=[];autosize=1;strokeColor=none;fillColor=none;fontColor=#0f0f0f;" vertex="1" parent="geT-NKtaQBkqU97uFaXf-1">
          <mxGeometry x="229.5" y="290" width="70" height="60" as="geometry" />
        </mxCell>
        <mxCell id="U7mJPMnorM55r3zGC1ry-19" value="检测结果" style="text;html=1;align=center;verticalAlign=middle;resizable=0;points=[];autosize=1;strokeColor=none;fillColor=none;fontColor=#0f0f0f;" vertex="1" parent="geT-NKtaQBkqU97uFaXf-1">
          <mxGeometry x="476" y="514" width="70" height="30" as="geometry" />
        </mxCell>
        <mxCell id="U7mJPMnorM55r3zGC1ry-20" value="数据库B" style="rounded=0;whiteSpace=wrap;html=1;" vertex="1" parent="geT-NKtaQBkqU97uFaXf-1">
          <mxGeometry x="252.24" y="545" width="80" height="30" as="geometry" />
        </mxCell>
        <mxCell id="U7mJPMnorM55r3zGC1ry-23" value="代币信息" style="text;html=1;align=center;verticalAlign=middle;resizable=0;points=[];autosize=1;strokeColor=none;fillColor=none;fontColor=#0f0f0f;" vertex="1" parent="geT-NKtaQBkqU97uFaXf-1">
          <mxGeometry x="290" y="514" width="70" height="30" as="geometry" />
        </mxCell>
      </root>
    </mxGraphModel>
  </diagram>
</mxfile>
